<mxfile host="65bd71144e">
    <diagram id="VYyqm7aXRF_dA9j08v4w" name="Page-1">
        <mxGraphModel dx="556" dy="403" grid="1" gridSize="10" guides="1" tooltips="1" connect="1" arrows="1" fold="1" page="1" pageScale="1" pageWidth="850" pageHeight="1100" math="0" shadow="0">
            <root>
                <mxCell id="0"/>
                <mxCell id="1" parent="0"/>
                <mxCell id="154" value="" style="rounded=0;html=1;jettySize=auto;orthogonalLoop=1;fontSize=11;endArrow=block;endFill=0;endSize=8;strokeWidth=1;shadow=0;labelBackgroundColor=none;edgeStyle=orthogonalEdgeStyle;" edge="1" parent="1" source="155" target="158">
                    <mxGeometry relative="1" as="geometry"/>
                </mxCell>
                <mxCell id="155" value="Dashboard" style="rounded=1;whiteSpace=wrap;html=1;fontSize=12;glass=0;strokeWidth=1;shadow=0;" vertex="1" parent="1">
                    <mxGeometry x="330" y="160" width="120" height="40" as="geometry"/>
                </mxCell>
                <mxCell id="157" value="No" style="edgeStyle=orthogonalEdgeStyle;rounded=0;html=1;jettySize=auto;orthogonalLoop=1;fontSize=11;endArrow=block;endFill=0;endSize=8;strokeWidth=1;shadow=0;labelBackgroundColor=none;entryX=0;entryY=0.5;entryDx=0;entryDy=0;" edge="1" parent="1" source="158" target="235">
                    <mxGeometry y="10" relative="1" as="geometry">
                        <mxPoint as="offset"/>
                        <mxPoint x="490" y="330" as="targetPoint"/>
                    </mxGeometry>
                </mxCell>
                <mxCell id="180" value="Yes" style="edgeStyle=none;html=1;exitX=0.5;exitY=1;exitDx=0;exitDy=0;entryX=0.5;entryY=0;entryDx=0;entryDy=0;" edge="1" parent="1" source="158" target="179">
                    <mxGeometry relative="1" as="geometry"/>
                </mxCell>
                <mxCell id="181" style="edgeStyle=none;html=1;exitX=0.5;exitY=1;exitDx=0;exitDy=0;entryX=0.5;entryY=0;entryDx=0;entryDy=0;" edge="1" parent="1" source="158" target="178">
                    <mxGeometry relative="1" as="geometry">
                        <Array as="points">
                            <mxPoint x="620" y="400"/>
                        </Array>
                    </mxGeometry>
                </mxCell>
                <mxCell id="222" value="Yes" style="edgeLabel;html=1;align=center;verticalAlign=middle;resizable=0;points=[];" vertex="1" connectable="0" parent="181">
                    <mxGeometry x="0.7285" y="-1" relative="1" as="geometry">
                        <mxPoint as="offset"/>
                    </mxGeometry>
                </mxCell>
                <mxCell id="190" style="edgeStyle=none;sketch=1;html=1;exitX=0.5;exitY=1;exitDx=0;exitDy=0;entryX=0.5;entryY=0;entryDx=0;entryDy=0;" edge="1" parent="1" source="158" target="164">
                    <mxGeometry relative="1" as="geometry">
                        <Array as="points">
                            <mxPoint x="205" y="400"/>
                        </Array>
                    </mxGeometry>
                </mxCell>
                <mxCell id="223" value="Yes" style="edgeLabel;html=1;align=center;verticalAlign=middle;resizable=0;points=[];" vertex="1" connectable="0" parent="190">
                    <mxGeometry x="0.6624" y="-1" relative="1" as="geometry">
                        <mxPoint as="offset"/>
                    </mxGeometry>
                </mxCell>
                <mxCell id="158" value="has&amp;nbsp;&lt;span style=&quot;color: rgb(156, 220, 254); background-color: rgb(31, 31, 31); font-family: &amp;quot;Fira Code&amp;quot;, Menlo, Monaco, &amp;quot;Courier New&amp;quot;, monospace;&quot;&gt;domain&lt;/span&gt;&lt;span style=&quot;background-color: initial;&quot;&gt;&amp;nbsp;&lt;/span&gt;" style="rhombus;whiteSpace=wrap;html=1;shadow=0;fontFamily=Helvetica;fontSize=12;align=center;strokeWidth=1;spacing=6;spacingTop=-4;" vertex="1" parent="1">
                    <mxGeometry x="340" y="320" width="100" height="80" as="geometry"/>
                </mxCell>
                <mxCell id="215" style="edgeStyle=none;sketch=1;html=1;entryX=0;entryY=0.5;entryDx=0;entryDy=0;" edge="1" parent="1" source="163" target="207">
                    <mxGeometry relative="1" as="geometry"/>
                </mxCell>
                <mxCell id="163" value="User can &lt;br&gt;control robot" style="rounded=1;whiteSpace=wrap;html=1;fontSize=12;glass=0;strokeWidth=1;shadow=0;" vertex="1" parent="1">
                    <mxGeometry x="145" y="860" width="115" height="40" as="geometry"/>
                </mxCell>
                <mxCell id="169" style="edgeStyle=none;html=1;exitX=0.5;exitY=1;exitDx=0;exitDy=0;entryX=0.5;entryY=0;entryDx=0;entryDy=0;" edge="1" parent="1" source="179" target="168">
                    <mxGeometry relative="1" as="geometry"/>
                </mxCell>
                <mxCell id="171" style="edgeStyle=none;html=1;exitX=0.5;exitY=1;exitDx=0;exitDy=0;entryX=0.5;entryY=0;entryDx=0;entryDy=0;" edge="1" parent="1" source="164" target="170">
                    <mxGeometry relative="1" as="geometry"/>
                </mxCell>
                <mxCell id="164" value="&lt;span style=&quot;background-color: rgb(31, 31, 31); color: rgb(204, 204, 204); font-family: &amp;quot;Fira Code&amp;quot;, Menlo, Monaco, &amp;quot;Courier New&amp;quot;, monospace;&quot;&gt;Request board info&lt;br&gt;&lt;/span&gt;" style="rounded=1;whiteSpace=wrap;html=1;fontSize=12;glass=0;strokeWidth=1;shadow=0;" vertex="1" parent="1">
                    <mxGeometry x="125" y="450" width="160" height="40" as="geometry"/>
                </mxCell>
                <mxCell id="198" value="No" style="edgeStyle=none;sketch=1;html=1;exitX=1;exitY=0.5;exitDx=0;exitDy=0;entryX=0.5;entryY=1;entryDx=0;entryDy=0;" edge="1" parent="1" source="168" target="174">
                    <mxGeometry relative="1" as="geometry">
                        <Array as="points">
                            <mxPoint x="470" y="650"/>
                        </Array>
                    </mxGeometry>
                </mxCell>
                <mxCell id="212" value="Yes" style="edgeStyle=none;sketch=1;html=1;exitX=0.5;exitY=1;exitDx=0;exitDy=0;entryX=0.5;entryY=0;entryDx=0;entryDy=0;" edge="1" parent="1" source="168" target="210">
                    <mxGeometry relative="1" as="geometry"/>
                </mxCell>
                <mxCell id="168" value="has video" style="rhombus;whiteSpace=wrap;html=1;shadow=0;fontFamily=Helvetica;fontSize=12;align=center;strokeWidth=1;spacing=6;spacingTop=-4;" vertex="1" parent="1">
                    <mxGeometry x="340" y="610" width="100" height="80" as="geometry"/>
                </mxCell>
                <mxCell id="173" value="Yes" style="edgeStyle=none;html=1;exitX=0.5;exitY=1;exitDx=0;exitDy=0;entryX=0.5;entryY=0;entryDx=0;entryDy=0;" edge="1" parent="1" source="170" target="172">
                    <mxGeometry relative="1" as="geometry"/>
                </mxCell>
                <mxCell id="177" value="" style="edgeStyle=none;html=1;" edge="1" parent="1" source="170" target="176">
                    <mxGeometry relative="1" as="geometry"/>
                </mxCell>
                <mxCell id="170" value="has info" style="rhombus;whiteSpace=wrap;html=1;shadow=0;fontFamily=Helvetica;fontSize=12;align=center;strokeWidth=1;spacing=6;spacingTop=-4;" vertex="1" parent="1">
                    <mxGeometry x="160" y="520" width="90" height="80" as="geometry"/>
                </mxCell>
                <mxCell id="184" style="edgeStyle=none;html=1;exitX=0.5;exitY=1;exitDx=0;exitDy=0;entryX=0.5;entryY=0;entryDx=0;entryDy=0;" edge="1" parent="1" source="172" target="183">
                    <mxGeometry relative="1" as="geometry"/>
                </mxCell>
                <mxCell id="172" value="Connect to web socket" style="rounded=1;whiteSpace=wrap;html=1;fontSize=12;glass=0;strokeWidth=1;shadow=0;" vertex="1" parent="1">
                    <mxGeometry x="137.5" y="650" width="135" height="40" as="geometry"/>
                </mxCell>
                <mxCell id="174" value="show no signal GIF" style="whiteSpace=wrap;html=1;shadow=0;strokeWidth=1;spacing=6;spacingTop=-4;" vertex="1" parent="1">
                    <mxGeometry x="410" y="520" width="120" height="60" as="geometry"/>
                </mxCell>
                <mxCell id="176" value="(redirect?)&lt;br&gt;User can not work&lt;br&gt;" style="ellipse;whiteSpace=wrap;html=1;" vertex="1" parent="1">
                    <mxGeometry x="17.5" y="530" width="120" height="60" as="geometry"/>
                </mxCell>
                <mxCell id="189" style="edgeStyle=none;sketch=1;html=1;exitX=0.5;exitY=1;exitDx=0;exitDy=0;" edge="1" parent="1" source="178" target="182">
                    <mxGeometry relative="1" as="geometry"/>
                </mxCell>
                <mxCell id="178" value="&lt;span style=&quot;background-color: rgb(31, 31, 31); color: rgb(204, 204, 204); font-family: &amp;quot;Fira Code&amp;quot;, Menlo, Monaco, &amp;quot;Courier New&amp;quot;, monospace;&quot;&gt;Request assignment&lt;/span&gt;" style="rounded=1;whiteSpace=wrap;html=1;fontSize=12;glass=0;strokeWidth=1;shadow=0;" vertex="1" parent="1">
                    <mxGeometry x="535" y="450" width="160" height="40" as="geometry"/>
                </mxCell>
                <mxCell id="179" value="&lt;span style=&quot;background-color: rgb(31, 31, 31); color: rgb(204, 204, 204); font-family: &amp;quot;Fira Code&amp;quot;, Menlo, Monaco, &amp;quot;Courier New&amp;quot;, monospace;&quot;&gt;Request stream&lt;br&gt;&lt;br&gt;&lt;/span&gt;" style="rounded=1;whiteSpace=wrap;html=1;fontSize=12;glass=0;strokeWidth=1;shadow=0;" vertex="1" parent="1">
                    <mxGeometry x="310" y="450" width="160" height="40" as="geometry"/>
                </mxCell>
                <mxCell id="192" value="No" style="edgeStyle=none;sketch=1;html=1;entryX=0;entryY=0.5;entryDx=0;entryDy=0;" edge="1" parent="1" source="182" target="191">
                    <mxGeometry relative="1" as="geometry"/>
                </mxCell>
                <mxCell id="195" value="Yes" style="edgeStyle=none;sketch=1;html=1;exitX=0.5;exitY=1;exitDx=0;exitDy=0;entryX=0.5;entryY=0;entryDx=0;entryDy=0;" edge="1" parent="1" source="182" target="193">
                    <mxGeometry relative="1" as="geometry"/>
                </mxCell>
                <mxCell id="182" value="has assignment" style="rhombus;whiteSpace=wrap;html=1;shadow=0;fontFamily=Helvetica;fontSize=12;align=center;strokeWidth=1;spacing=6;spacingTop=-4;" vertex="1" parent="1">
                    <mxGeometry x="540" y="540" width="150" height="80" as="geometry"/>
                </mxCell>
                <mxCell id="186" value="No" style="edgeStyle=none;html=1;sketch=1;curveFitting=1;jiggle=2;entryX=1;entryY=0.5;entryDx=0;entryDy=0;" edge="1" parent="1" source="183" target="226">
                    <mxGeometry x="0.0222" relative="1" as="geometry">
                        <mxPoint x="127.5" y="770" as="targetPoint"/>
                        <mxPoint as="offset"/>
                    </mxGeometry>
                </mxCell>
                <mxCell id="187" value="Yes" style="edgeStyle=none;html=1;" edge="1" parent="1" source="183" target="163">
                    <mxGeometry relative="1" as="geometry"/>
                </mxCell>
                <mxCell id="183" value="connected" style="rhombus;whiteSpace=wrap;html=1;shadow=0;fontFamily=Helvetica;fontSize=12;align=center;strokeWidth=1;spacing=6;spacingTop=-4;" vertex="1" parent="1">
                    <mxGeometry x="165" y="730" width="80" height="80" as="geometry"/>
                </mxCell>
                <mxCell id="237" style="edgeStyle=none;sketch=1;html=1;entryX=1;entryY=0.5;entryDx=0;entryDy=0;" edge="1" parent="1" source="191" target="207">
                    <mxGeometry relative="1" as="geometry">
                        <Array as="points">
                            <mxPoint x="790" y="880"/>
                        </Array>
                    </mxGeometry>
                </mxCell>
                <mxCell id="191" value="show default assignment" style="whiteSpace=wrap;html=1;shadow=0;strokeWidth=1;spacing=6;spacingTop=-4;" vertex="1" parent="1">
                    <mxGeometry x="730" y="550" width="120" height="60" as="geometry"/>
                </mxCell>
                <mxCell id="214" style="edgeStyle=none;sketch=1;html=1;exitX=0.5;exitY=1;exitDx=0;exitDy=0;entryX=1;entryY=0.5;entryDx=0;entryDy=0;" edge="1" parent="1" source="193" target="207">
                    <mxGeometry relative="1" as="geometry">
                        <Array as="points">
                            <mxPoint x="615" y="880"/>
                        </Array>
                    </mxGeometry>
                </mxCell>
                <mxCell id="193" value="User can access assignment &lt;br&gt;in side menu" style="rounded=1;whiteSpace=wrap;html=1;fontSize=12;glass=0;strokeWidth=1;shadow=0;" vertex="1" parent="1">
                    <mxGeometry x="510" y="680" width="210" height="40" as="geometry"/>
                </mxCell>
                <mxCell id="205" style="edgeStyle=none;sketch=1;html=1;exitX=0.5;exitY=1;exitDx=0;exitDy=0;" edge="1" parent="1" source="199" target="203">
                    <mxGeometry relative="1" as="geometry"/>
                </mxCell>
                <mxCell id="199" value="Courses" style="rounded=1;whiteSpace=wrap;html=1;fontSize=12;glass=0;strokeWidth=1;shadow=0;" vertex="1" parent="1">
                    <mxGeometry x="85" y="30" width="120" height="40" as="geometry"/>
                </mxCell>
                <mxCell id="200" value="For teachers" style="rounded=1;whiteSpace=wrap;html=1;fontSize=12;glass=0;strokeWidth=1;shadow=0;" vertex="1" parent="1">
                    <mxGeometry x="670" y="30" width="120" height="40" as="geometry"/>
                </mxCell>
                <mxCell id="219" style="edgeStyle=none;sketch=1;html=1;entryX=0.5;entryY=0;entryDx=0;entryDy=0;" edge="1" parent="1" source="203" target="217">
                    <mxGeometry relative="1" as="geometry"/>
                </mxCell>
                <mxCell id="203" value="Pick course&lt;br&gt;(promt for protection)" style="shape=parallelogram;perimeter=parallelogramPerimeter;whiteSpace=wrap;html=1;fixedSize=1;" vertex="1" parent="1">
                    <mxGeometry x="70" y="120" width="150" height="40" as="geometry"/>
                </mxCell>
                <mxCell id="238" value="redirect" style="edgeStyle=none;sketch=1;html=1;exitX=1;exitY=0.5;exitDx=0;exitDy=0;entryX=0.5;entryY=0;entryDx=0;entryDy=0;" edge="1" parent="1" source="206" target="158">
                    <mxGeometry relative="1" as="geometry"/>
                </mxCell>
                <mxCell id="206" value="store&amp;nbsp;&lt;span style=&quot;color: rgb(156, 220, 254); background-color: rgb(31, 31, 31); font-family: &amp;quot;Fira Code&amp;quot;, Menlo, Monaco, &amp;quot;Courier New&amp;quot;, monospace;&quot;&gt;domain&lt;/span&gt;&lt;span style=&quot;background-color: initial;&quot;&gt;&amp;nbsp;&lt;/span&gt;&amp;nbsp;&lt;br&gt;in localStorage" style="ellipse;whiteSpace=wrap;html=1;" vertex="1" parent="1">
                    <mxGeometry x="85" y="290" width="120" height="60" as="geometry"/>
                </mxCell>
                <mxCell id="207" value="End" style="ellipse;whiteSpace=wrap;html=1;" vertex="1" parent="1">
                    <mxGeometry x="330" y="840" width="120" height="80" as="geometry"/>
                </mxCell>
                <mxCell id="213" style="edgeStyle=none;sketch=1;html=1;exitX=0.5;exitY=1;exitDx=0;exitDy=0;" edge="1" parent="1" source="210" target="207">
                    <mxGeometry relative="1" as="geometry"/>
                </mxCell>
                <mxCell id="210" value="Show video" style="rounded=1;whiteSpace=wrap;html=1;fontSize=12;glass=0;strokeWidth=1;shadow=0;" vertex="1" parent="1">
                    <mxGeometry x="322.5" y="740" width="135" height="50" as="geometry"/>
                </mxCell>
                <mxCell id="231" style="edgeStyle=none;sketch=1;html=1;entryX=1;entryY=0.5;entryDx=0;entryDy=0;" edge="1" parent="1" source="216" target="199">
                    <mxGeometry relative="1" as="geometry"/>
                </mxCell>
                <mxCell id="232" style="edgeStyle=none;sketch=1;html=1;entryX=0.5;entryY=0;entryDx=0;entryDy=0;" edge="1" parent="1" source="216" target="155">
                    <mxGeometry relative="1" as="geometry"/>
                </mxCell>
                <mxCell id="234" style="edgeStyle=none;sketch=1;html=1;exitX=1;exitY=0.5;exitDx=0;exitDy=0;entryX=0;entryY=0.5;entryDx=0;entryDy=0;" edge="1" parent="1" source="216" target="200">
                    <mxGeometry relative="1" as="geometry"/>
                </mxCell>
                <mxCell id="216" value="Start" style="ellipse;whiteSpace=wrap;html=1;" vertex="1" parent="1">
                    <mxGeometry x="328.75" y="20" width="122.5" height="60" as="geometry"/>
                </mxCell>
                <mxCell id="229" value="Yes" style="edgeStyle=none;sketch=1;html=1;entryX=0.5;entryY=0;entryDx=0;entryDy=0;" edge="1" parent="1" source="217" target="206">
                    <mxGeometry relative="1" as="geometry"/>
                </mxCell>
                <mxCell id="230" value="No" style="edgeStyle=none;sketch=1;html=1;exitX=1;exitY=0.5;exitDx=0;exitDy=0;entryX=0.5;entryY=1;entryDx=0;entryDy=0;" edge="1" parent="1" source="217" target="199">
                    <mxGeometry relative="1" as="geometry">
                        <mxPoint x="270" y="130" as="targetPoint"/>
                        <Array as="points">
                            <mxPoint x="250" y="190"/>
                            <mxPoint x="250" y="110"/>
                        </Array>
                    </mxGeometry>
                </mxCell>
                <mxCell id="217" value="prompt === robx" style="rhombus;whiteSpace=wrap;html=1;" vertex="1" parent="1">
                    <mxGeometry x="91.25" y="180" width="107.5" height="80" as="geometry"/>
                </mxCell>
                <mxCell id="226" value="(redirect?)&lt;br&gt;User can not work&lt;br&gt;" style="ellipse;whiteSpace=wrap;html=1;" vertex="1" parent="1">
                    <mxGeometry y="740" width="120" height="60" as="geometry"/>
                </mxCell>
                <mxCell id="235" value="(redirect?)&lt;br&gt;User can not work&lt;br&gt;" style="ellipse;whiteSpace=wrap;html=1;" vertex="1" parent="1">
                    <mxGeometry x="520" y="330" width="120" height="60" as="geometry"/>
                </mxCell>
            </root>
        </mxGraphModel>
    </diagram>
</mxfile>